<svg xmlns="http://www.w3.org/2000/svg" version="1.1" xmlns:xlink="http://www.w3.org/1999/xlink" xmlns:svgjs="http://svgjs.dev/svgjs" width="1440" height="560" preserveAspectRatio="none" viewBox="0 0 1440 560">
    <g mask="url(&quot;#SvgjsMask1000&quot;)" fill="none">
        <rect width="1440" height="560" x="0" y="0" fill="rgba(28, 37, 65, 1)"></rect>
        <path d="M0,611.734C114.36,622.358,221.636,557.005,314.801,489.84C404.527,425.154,464.209,333.052,519.471,237.234C580.013,132.26,673.067,25.568,651.317,-93.645C629.585,-212.757,487.497,-262.292,411.182,-356.292C331.373,-454.596,305.724,-599.897,193.189,-657.94C75.25,-718.77,-73.207,-718.448,-196.674,-669.81C-316.376,-622.656,-397.435,-511.496,-461.616,-399.993C-517.885,-302.236,-542.792,-189.993,-537.715,-77.312C-533.206,22.761,-479.784,109.067,-434.648,198.497C-391.32,284.347,-349.023,368.385,-279.33,434.645C-197.78,512.177,-112.042,601.325,0,611.734" fill="#161e34"></path>
        <path d="M1440 949.344C1531.1 954.5640000000001 1624.792 1015.094 1706.937 975.3620000000001 1789.597 935.38 1829.005 837.428 1854.032 749.082 1876.943 668.204 1854.0819999999999 585.381 1840.93 502.355 1827.9769999999999 420.58299999999997 1820.445 338.279 1777.723 267.361 1729.491 187.296 1672.076 101.36000000000001 1582.762 73.798 1493.218 46.164999999999964 1395.594 81.52300000000002 1311.8609999999999 123.60000000000002 1236.909 161.264 1191.671 233.832 1137.2559999999999 297.671 1083.333 360.93399999999997 998.585 412.91999999999996 994.485 495.945 990.383 579.022 1083.5810000000001 631.34 1117.02 707.5 1151.1979999999999 785.342 1123.974 894.9 1192.026 945.856 1259.565 996.429 1355.763 944.517 1440 949.344" fill="#222c4e"></path>
    </g>
    <defs>
        <mask id="SvgjsMask1000">
            <rect width="1440" height="560" fill="#ffffff"></rect>
        </mask>
    </defs>
</svg>