<svg xmlns="http://www.w3.org/2000/svg" width="47" height="52" viewBox="0 0 47 52" fill="none">
  <path d="M21.1264 2.87558C21.8526 2.47234 22.6694 2.26074 23.5 2.26074C24.3306 2.26074 25.1474 2.47234 25.8736 2.87558L44.2436 13.0787C44.6244 13.2905 44.9417 13.6002 45.1626 13.9759C45.3835 14.3515 45.5 14.7794 45.5 15.2151V35.3451C45.5002 36.2174 45.2671 37.0738 44.8248 37.8255C44.3825 38.5773 43.7472 39.197 42.9847 39.6205L25.8736 49.1245C25.1474 49.5277 24.3306 49.7393 23.5 49.7393C22.6694 49.7393 21.8526 49.5277 21.1264 49.1245L4.01533 39.618C3.25354 39.195 2.61866 38.576 2.17641 37.8252C1.73417 37.0744 1.50064 36.219 1.5 35.3476V15.2151C1.49998 14.7794 1.61646 14.3515 1.83737 13.9759C2.05828 13.6002 2.37559 13.2905 2.75644 13.0787L21.1264 2.87558Z" stroke="#1A1B23" stroke-width="3" stroke-linecap="round" stroke-linejoin="round"/>
  <path d="M12.5 7.66675L34.5 19.889V28.4445M8.83331 26.8019L16.1666 30.889" stroke="#1A1B23" stroke-width="3" stroke-linecap="round" stroke-linejoin="round"/>
  <path d="M1.5 13.7778L23.5 26.0001M23.5 26.0001L45.5 13.7778M23.5 26.0001V49.2223" stroke="#1A1B23" stroke-width="3" stroke-linejoin="round"/>
</svg>