<svg width="28" height="28" viewBox="0 0 28 28" fill="none" xmlns="http://www.w3.org/2000/svg">
<g id="&#240;&#159;&#166;&#134; icon &#34;cart&#34;">
<path id="Vector" d="M23 26C23.9941 26 24.8 25.1941 24.8 24.2C24.8 23.2059 23.9941 22.4 23 22.4C22.0059 22.4 21.2 23.2059 21.2 24.2C21.2 25.1941 22.0059 26 23 26Z" fill="white" stroke="white" stroke-width="2.31596" stroke-linecap="round" stroke-linejoin="round"/>
<path id="Vector_2" d="M11 26C11.9941 26 12.8 25.1941 12.8 24.2C12.8 23.2059 11.9941 22.4 11 22.4C10.0059 22.4 9.20001 23.2059 9.20001 24.2C9.20001 25.1941 10.0059 26 11 26Z" fill="white" stroke="white" stroke-width="2.31596" stroke-linecap="round" stroke-linejoin="round"/>
<path id="Vector_3" d="M5.6 4.4H26L23.6 17.6H8L5.6 4.4ZM5.6 4.4C5.4 3.6 4.4 2 2 2" stroke="white" stroke-width="2.31596" stroke-linecap="round" stroke-linejoin="round"/>
<path id="Vector_4" d="M23.6 17.6H8.00001H5.87693C3.73576 17.6 2.60001 18.5374 2.60001 20C2.60001 21.4626 3.73576 22.4 5.87693 22.4H23" stroke="white" stroke-width="2.31596" stroke-linecap="round" stroke-linejoin="round"/>
</g>
</svg>
