<svg xmlns="http://www.w3.org/2000/svg" width="26" height="26" viewBox="0 0 26 26" fill="none">
  <path d="M21.625 24.5C22.5777 24.5 23.35 23.7277 23.35 22.775C23.35 21.8224 22.5777 21.05 21.625 21.05C20.6724 21.05 19.9 21.8224 19.9 22.775C19.9 23.7277 20.6724 24.5 21.625 24.5Z" stroke="black" stroke-width="1.77" stroke-linecap="round" stroke-linejoin="round"/>
  <path d="M10.125 24.5C11.0777 24.5 11.85 23.7277 11.85 22.775C11.85 21.8224 11.0777 21.05 10.125 21.05C9.17233 21.05 8.40002 21.8224 8.40002 22.775C8.40002 23.7277 9.17233 24.5 10.125 24.5Z" stroke="black" stroke-width="1.77" stroke-linecap="round" stroke-linejoin="round"/>
  <path d="M4.95 3.8H24.5L22.2 16.45H7.25L4.95 3.8ZM4.95 3.8C4.75833 3.03333 3.8 1.5 1.5 1.5" stroke="black" stroke-width="1.77" stroke-linecap="round" stroke-linejoin="round"/>
  <path d="M22.2 16.45H7.25001H5.2154C3.16344 16.45 2.07501 17.3483 2.07501 18.75C2.07501 20.1516 3.16344 21.05 5.2154 21.05H21.625" stroke="black" stroke-width="1.77" stroke-linecap="round" stroke-linejoin="round"/>
</svg>