<svg xmlns="http://www.w3.org/2000/svg" width="24" height="25" viewBox="0 0 24 25" fill="none">
  <path d="M22.6016 7.95361V17.1099C22.6016 20.2704 20.0394 22.8325 16.8789 22.8325H7.72266C4.56212 22.8325 2 20.2704 2 17.1099V7.95361C2 4.79308 4.56212 2.23096 7.72266 2.23096H16.8789C20.0394 2.23096 22.6016 4.79308 22.6016 7.95361Z" fill="white" stroke="black" stroke-width="2.75" stroke-linecap="round" stroke-linejoin="round"/>
  <path d="M11.1562 22.8325C11.1562 19.3989 11.1562 15.9653 11.1562 12.5317C11.1562 10.0281 11.7285 7.95361 15.7343 7.95361" fill="white"/>
  <path d="M11.1562 22.8325C11.1562 19.3989 11.1562 15.9653 11.1562 12.5317C11.1562 10.0281 11.7285 7.95361 15.7343 7.95361" stroke="black" stroke-width="2.75" stroke-linecap="round" stroke-linejoin="round"/>
  <path d="M8.86713 13.6758H11.1562H15.7343" fill="white"/>
  <path d="M8.86713 13.6758H11.1562H15.7343" stroke="black" stroke-width="2.75" stroke-linecap="round" stroke-linejoin="round"/>
</svg>