<svg xmlns="http://www.w3.org/2000/svg" width="24" height="23" viewBox="0 0 24 23" fill="none">
  <path d="M1.18683 16.1844V6.87953C1.18683 3.66769 3.79055 1.06396 7.00239 1.06396H16.3073C19.5191 1.06396 22.1229 3.66769 22.1229 6.87953V16.1844C22.1229 19.3963 19.5191 22 16.3073 22H7.00239C3.79055 22 1.18683 19.3963 1.18683 16.1844Z" fill="white" stroke="black" stroke-width="2"/>
  <path d="M18.0519 5.14684L18.0641 5.1333L18.0519 5.14684Z" fill="white"/>
  <path d="M18.0519 5.14684L18.0641 5.1333" stroke="black" stroke-width="2" stroke-linecap="round" stroke-linejoin="round"/>
  <path d="M11.6548 16.1843C14.2243 16.1843 16.3073 14.1013 16.3073 11.5318C16.3073 8.96237 14.2243 6.87939 11.6548 6.87939C9.08535 6.87939 7.00238 8.96237 7.00238 11.5318C7.00238 14.1013 9.08535 16.1843 11.6548 16.1843Z" fill="white" stroke="black" stroke-width="2" stroke-linecap="round" stroke-linejoin="round"/>
</svg>