<svg xmlns="http://www.w3.org/2000/svg" width="107" height="46" viewBox="0 0 107 46" fill="none">
  <path d="M45.1334 28.9632C44.8412 28.5751 44.6952 28.1386 44.6952 27.6535V24.9855V24.2094V9.36591C44.6952 7.37708 43.0885 5.7278 41.0436 5.7278H25.4149H11.8311C9.83493 5.7278 8.17956 7.32857 8.17956 9.36591V20.2802V23.4333H11.7824V9.3174H23.7596H41.0436V24.2094V25.1796V27.9445H21.9094L21.666 28.8177C21.6173 29.0117 21.6173 29.2057 21.5199 29.3998L19.8159 35.4148H44.7439C46.1071 35.4148 47.2269 34.2991 47.2269 32.9409V31.8737C47.2269 31.6312 47.1295 31.4371 47.0322 31.2431L45.1334 28.9632ZM30.3811 31.8252C30.3811 32.5043 29.7968 33.0864 29.1152 33.0864H23.7596C23.0779 33.0864 22.4937 32.5043 22.4937 31.8252V31.5341H30.3811V31.8252ZM23.1753 24.549C23.5648 24.549 23.9056 24.2094 23.9056 23.8213V23.7243C23.9056 23.3363 23.5648 22.9967 23.1753 22.9967H21.0331H19.6698H19.0856L18.1605 26.2467C17.8197 26.0527 17.4789 25.9557 17.0407 25.9557H2.53181C1.85019 25.9557 1.21725 26.2467 0.827748 26.7803C0.389561 27.3139 0.243499 27.993 0.438248 28.6722L2.38575 36.579C2.62919 37.5491 3.50556 38.2283 4.528 38.2283H6.81631H14.8984H16.3104C16.7972 38.2283 17.1867 38.6163 17.1867 39.1014C17.1867 39.5865 16.7972 39.9746 16.3104 39.9746H7.44925C7.44925 39.9746 7.40056 39.9746 7.35187 39.9746H2.53181C2.48312 39.9746 2.48312 39.9746 2.43444 39.9746C1.07119 40.0231 6.10352e-05 41.1388 6.10352e-05 42.497C6.10352e-05 43.9037 1.11987 45.0194 2.53181 45.0194C3.94375 45.0194 5.06356 43.9037 5.06356 42.497C5.06356 42.2059 5.01487 41.9149 4.9175 41.6723H6.71893H11.6364C11.539 41.9149 11.4903 42.2059 11.4903 42.497C11.4903 43.9037 12.6101 45.0194 14.0221 45.0194C15.434 45.0194 16.5538 43.9037 16.5538 42.497C16.5538 42.2059 16.5051 41.9149 16.4077 41.6723C17.771 41.5753 18.8421 40.4596 18.8421 39.1014C18.8421 37.8887 18.0144 36.87 16.8946 36.579L19.1342 28.7207C19.1829 28.5751 19.1829 28.4781 19.2316 28.3326L20.3027 24.549H23.1753ZM2.53181 43.3216C2.09362 43.3216 1.70412 42.9336 1.70412 42.497C1.70412 42.0604 2.09362 41.6723 2.53181 41.6723C2.97 41.6723 3.3595 42.0604 3.3595 42.497C3.3595 42.9336 3.01869 43.3216 2.53181 43.3216ZM14.0707 43.3216C13.6326 43.3216 13.2431 42.9336 13.2431 42.497C13.2431 42.0604 13.6326 41.6723 14.0707 41.6723C14.5089 41.6723 14.8984 42.0604 14.8984 42.497C14.8984 42.9336 14.5576 43.3216 14.0707 43.3216ZM2.04494 28.2356C1.99625 28.0415 2.09362 27.896 2.14231 27.799C2.191 27.7505 2.33706 27.605 2.53181 27.605H3.94375L4.33325 29.5453H2.38575L2.04494 28.2356ZM2.77525 31.2916H4.67406L5.06356 33.0864H3.26212L2.77525 31.2916ZM4.47931 36.482C4.23587 36.482 4.04112 36.3364 3.99243 36.0939L3.65162 34.7842H5.40437L5.74518 36.482H4.47931ZM8.86118 36.482H7.54662L7.20581 34.7842H8.90987V36.482H8.86118ZM8.86118 33.0864H6.81631L6.42681 31.2916H8.86118V33.0864ZM8.86118 29.5938H6.03731L5.64781 27.6535H8.86118V29.5938ZM11.7824 36.482H10.5652V34.7842H12.1232L11.7824 36.482ZM12.5127 33.0864H10.5652V31.2916H12.9022L12.5127 33.0864ZM10.5652 29.5938V27.6535H13.7299L13.2917 29.5938H10.5652ZM15.2879 36.1424C15.2392 36.3364 15.0445 36.482 14.8011 36.482H13.4865L13.876 34.7842H15.6774L15.2879 36.1424ZM16.1643 33.0864H14.2655L14.655 31.2916H16.6512L16.1643 33.0864ZM17.5276 28.2356L17.1381 29.5938H15.0445L15.4827 27.6535H17.0894C17.2841 27.6535 17.4302 27.799 17.4789 27.8475C17.4789 27.896 17.5762 28.0415 17.5276 28.2356Z" fill="white"/>
  <path d="M55.6432 19.1473C54.1836 19.1473 53.0191 18.8146 52.1497 18.1492C51.2803 17.4846 50.827 16.5059 50.79 15.2128H53.2518C53.2952 15.8134 53.5338 16.2654 53.9676 16.5689C54.4005 16.8714 54.9482 17.0227 55.6107 17.0227C56.2568 17.0227 56.7752 16.8863 57.1656 16.6134C57.5551 16.3397 57.7499 15.9827 57.7499 15.5424C57.7499 15.1408 57.5723 14.8311 57.2171 14.6132C56.8619 14.3961 56.3558 14.2098 55.6988 14.054L54.3824 13.7325C53.3702 13.4912 52.5722 13.1063 51.9884 12.5777C51.4045 12.0492 51.1126 11.3428 51.1126 10.4585C51.1126 9.73369 51.3092 9.09934 51.7023 8.55548C52.0955 8.01072 52.635 7.58661 53.321 7.28316C54.0078 6.98062 54.79 6.82935 55.6676 6.82935C56.5605 6.82935 57.3409 6.98195 58.0088 7.2872C58.6767 7.59335 59.1977 8.01746 59.5719 8.55952C59.946 9.10068 60.1385 9.72558 60.1494 10.4342H57.6943C57.6509 9.9669 57.4516 9.60179 57.0964 9.33886C56.7413 9.07683 56.2596 8.94582 55.6513 8.94582C55.0322 8.94582 54.5555 9.07322 54.2211 9.32804C53.8876 9.58286 53.7209 9.90568 53.7209 10.2965C53.7209 10.7206 53.9066 11.0411 54.2781 11.2581C54.6495 11.4751 55.0964 11.6458 55.6188 11.77L56.6925 12.0347C57.3929 12.1905 58.0147 12.417 58.5578 12.7141C59.1019 13.0122 59.5298 13.393 59.8416 13.8568C60.1543 14.3214 60.3107 14.886 60.3107 15.5505C60.3107 16.6499 59.8986 17.5243 59.0743 18.1735C58.251 18.8227 57.1073 19.1473 55.6432 19.1473Z" fill="white"/>
  <path d="M64.4549 6.99005V18.9784H61.951V6.99005H64.4549Z" fill="white"/>
  <path d="M66.4978 18.9784V6.99005H74.6059V9.08223H69.0342V11.8983H74.1775V13.95H69.0342V16.8863H74.6222V18.9784H66.4978Z" fill="white"/>
  <path d="M76.6177 18.9784V6.99005H84.7258V9.08223H79.1541V11.8983H84.2988V13.95H79.1541V16.8863H84.7421V18.9784H76.6177Z" fill="white"/>
  <path d="M86.7227 18.9784V6.99005H89.2577V12.2765H89.4109L93.7476 6.99005H96.7924L92.335 12.3562L96.8493 18.9784H93.7964L90.509 14.054L89.2577 15.5748V18.9784H86.7227Z" fill="white"/>
  <path d="M55.6432 35.6252C54.1836 35.6252 53.0191 35.2925 52.1497 34.6271C51.2803 33.9626 50.827 32.9838 50.79 31.6908H53.2518C53.2952 32.2914 53.5338 32.7434 53.9676 33.0468C54.4005 33.3494 54.9482 33.5007 55.6107 33.5007C56.2568 33.5007 56.7752 33.3642 57.1656 33.0914C57.5551 32.8177 57.7499 32.4607 57.7499 32.0203C57.7499 31.6188 57.5723 31.309 57.2171 31.0911C56.8619 30.8741 56.3558 30.6877 55.6988 30.5319L54.3824 30.2105C53.3702 29.9691 52.5722 29.5842 51.9884 29.0557C51.4045 28.5271 51.1126 27.8207 51.1126 26.9365C51.1126 26.2116 51.3092 25.5773 51.7023 25.0334C52.0955 24.4887 52.635 24.0646 53.321 23.7611C54.0078 23.4586 54.79 23.3073 55.6676 23.3073C56.5605 23.3073 57.3409 23.4599 58.0088 23.7652C58.6767 24.0713 59.1977 24.4954 59.5719 25.0375C59.946 25.5786 60.1385 26.2035 60.1494 26.9122H57.6943C57.6509 26.4448 57.4516 26.0797 57.0964 25.8168C56.7413 25.5548 56.2596 25.4238 55.6513 25.4238C55.0322 25.4238 54.5555 25.5512 54.2211 25.806C53.8876 26.0608 53.7209 26.3836 53.7209 26.7744C53.7209 27.1985 53.9066 27.5191 54.2781 27.7361C54.6495 27.954 55.0964 28.1246 55.6188 28.248L56.6925 28.5127C57.3929 28.6685 58.0147 28.8949 58.5578 29.1921C59.1019 29.4901 59.5298 29.871 59.8416 30.3347C60.1543 30.7994 60.3107 31.3639 60.3107 32.0284C60.3107 33.1288 59.8986 34.0031 59.0743 34.6514C58.251 35.3006 57.1073 35.6252 55.6432 35.6252Z" fill="white"/>
  <path d="M61.9998 35.4564V23.468H64.5362V28.4168H69.6958V23.468H72.2403V35.4564H69.6958V30.4995H64.5362V35.4564H61.9998Z" fill="white"/>
  <path d="M79.7221 35.6171C78.6557 35.6171 77.6972 35.3758 76.8468 34.8932C75.9963 34.4105 75.3235 33.7105 74.8282 32.7929C74.333 31.8763 74.0853 30.7687 74.0853 29.4703C74.0853 28.1611 74.333 27.0481 74.8282 26.1315C75.3235 25.214 75.9963 24.5139 76.8468 24.0312C77.6972 23.5486 78.6557 23.3073 79.7221 23.3073C80.7876 23.3073 81.7447 23.5486 82.5934 24.0312C83.4411 24.5139 84.1126 25.214 84.6078 26.1315C85.1031 27.0481 85.3507 28.1611 85.3507 29.4703C85.3507 30.7786 85.1031 31.8902 84.6078 32.8051C84.1126 33.7199 83.4411 34.4173 82.5934 34.8972C81.7447 35.3772 80.7876 35.6171 79.7221 35.6171ZM76.6611 29.4703C76.6611 30.7363 76.9399 31.7043 77.4975 32.3742C78.0542 33.045 78.7957 33.3804 79.7221 33.3804C80.6421 33.3804 81.381 33.045 81.9386 32.3742C82.4962 31.7043 82.775 30.7363 82.775 29.4703C82.775 28.1989 82.4962 27.2269 81.9386 26.5542C81.381 25.8807 80.6421 25.544 79.7221 25.544C78.7957 25.544 78.0542 25.8807 77.4975 26.5542C76.9399 27.2269 76.6611 28.1989 76.6611 29.4703Z" fill="white"/>
  <path d="M87.2189 35.4564V23.468H91.9501C92.8656 23.468 93.6451 23.6422 94.2886 23.9907C94.932 24.3392 95.4232 24.8196 95.7621 25.4319C96.1011 26.0433 96.2705 26.7456 96.2705 27.5389C96.2705 28.3331 96.0983 29.0332 95.754 29.6391C95.4097 30.2451 94.9117 30.7183 94.2601 31.0587C93.6085 31.3999 92.8199 31.5706 91.8945 31.5706H89.7539V35.4564H87.2189ZM89.7539 29.5432H91.4742C92.2117 29.5432 92.7594 29.3569 93.1173 28.9841C93.4752 28.6113 93.6541 28.1296 93.6541 27.5389C93.6541 26.9383 93.4738 26.4557 93.1132 26.091C92.7526 25.7263 92.2036 25.544 91.4661 25.544H89.7539V29.5432Z" fill="white"/>
  <path d="M97.9176 35.4564V23.468H106.026V25.5602H100.453V28.3763H105.597V30.4279H100.453V33.3642H106.042V35.4564H97.9176Z" fill="white"/>
</svg>