<svg width="26" height="26" viewBox="0 0 26 26" fill="none" xmlns="http://www.w3.org/2000/svg">
<g id="&#240;&#159;&#166;&#134; icon &#34;profile circled&#34;">
<path id="Vector" d="M13 1C6.37258 1 1 6.37258 1 13C1 19.6274 6.37258 25 13 25C19.6274 25 25 19.6274 25 13C25 6.37258 19.6274 1 13 1Z" stroke="white" stroke-width="1.94" stroke-linecap="round" stroke-linejoin="round"/>
<path id="Vector_2" d="M3.72519 20.6148C3.72519 20.6148 6.40001 17.2 13 17.2C19.6 17.2 22.2749 20.6148 22.2749 20.6148" stroke="white" stroke-width="1.94" stroke-linecap="round" stroke-linejoin="round"/>
<path id="Vector_3" d="M13 13C14.9883 13 16.6 11.3883 16.6 9.4C16.6 7.41178 14.9883 5.8 13 5.8C11.0117 5.8 9.39999 7.41178 9.39999 9.4C9.39999 11.3883 11.0117 13 13 13Z" stroke="white" stroke-width="1.94" stroke-linecap="round" stroke-linejoin="round"/>
</g>
</svg>
