<svg xmlns="http://www.w3.org/2000/svg" width="45" height="44" viewBox="0 0 45 44" fill="none">
  <g clip-path="url(#clip0_270_161)">
    <path fill-rule="evenodd" clip-rule="evenodd" d="M16.4054 0.769997C20.7318 -0.404739 25.314 -0.229657 29.5382 1.2718C33.7624 2.77326 37.4271 5.52942 40.0416 9.17125V4.8125C40.0416 4.26549 40.2589 3.74088 40.6457 3.35409C41.0325 2.9673 41.5571 2.75 42.1041 2.75C42.6511 2.75 43.1757 2.9673 43.5625 3.35409C43.9493 3.74088 44.1666 4.26549 44.1666 4.8125V16.5H32.4791C31.9321 16.5 31.4075 16.2827 31.0207 15.8959C30.6339 15.5091 30.4166 14.9845 30.4166 14.4375C30.4166 13.8905 30.6339 13.3659 31.0207 12.9791C31.4075 12.5923 31.9321 12.375 32.4791 12.375H37.2284C35.0742 9.00484 31.8519 6.45456 28.0771 5.13213C24.3022 3.80971 20.1929 3.79157 16.4065 5.08061C12.6201 6.36965 9.37547 8.89138 7.19163 12.2424C5.0078 15.5934 4.01097 19.58 4.36063 23.5645C4.71028 27.549 6.38622 31.3011 9.12031 34.2205C11.8544 37.1399 15.4887 39.058 19.4417 39.6679C23.3947 40.2778 27.4381 39.5442 30.9249 37.5845C34.4118 35.6248 37.1406 32.5523 38.6749 28.8585C38.7744 28.6024 38.9242 28.3688 39.1153 28.1714C39.3065 27.974 39.5351 27.8168 39.7879 27.7089C40.0406 27.6011 40.3123 27.5449 40.5871 27.5436C40.8619 27.5423 41.1342 27.5958 41.3879 27.7012C41.6417 27.8066 41.8719 27.9616 42.0649 28.1571C42.2579 28.3526 42.41 28.5848 42.512 28.8399C42.6141 29.095 42.6642 29.368 42.6593 29.6427C42.6544 29.9174 42.5947 30.1884 42.4836 30.4397C41.0503 33.8897 38.7621 36.9179 35.8347 39.2388C32.9072 41.5597 29.437 43.0969 25.751 43.7055C22.0651 44.3141 18.2848 43.974 14.7667 42.7173C11.2486 41.4606 8.10837 39.3288 5.64215 36.5226C3.17594 33.7165 1.46493 30.3286 0.670406 26.6782C-0.124113 23.0278 0.0240325 19.2352 1.10088 15.6579C2.17772 12.0806 4.1478 8.83649 6.82539 6.23129C9.50299 3.62609 12.7999 1.74841 16.4054 0.769997Z" fill="#1A1B23"/>
  </g>
  <defs>
    <clipPath id="clip0_270_161">
      <rect width="44" height="44" fill="white" transform="translate(0.166626)"/>
    </clipPath>
  </defs>
</svg>