<svg xmlns="http://www.w3.org/2000/svg" width="48" height="50" viewBox="0 0 48 50" fill="none">
  <path d="M20.2895 0.5L38.3424 6.086C38.8459 6.24168 39.286 6.55268 39.5984 6.97361C39.9108 7.39453 40.0792 7.90334 40.0789 8.42575V12.75H45.0263C45.6824 12.75 46.3116 13.0081 46.7755 13.4676C47.2394 13.9271 47.5 14.5502 47.5 15.2V34.8C47.5 35.4498 47.2394 36.0729 46.7755 36.5324C46.3116 36.9919 45.6824 37.25 45.0263 37.25L37.0611 37.2524C36.1037 38.5019 34.9411 39.6045 33.5979 40.5109L20.2895 49.5L6.98105 40.5134C4.98361 39.1646 3.34907 37.3529 2.21956 35.2359C1.09004 33.1189 0.49975 30.7607 0.5 28.3663V8.42575C0.500298 7.90376 0.66892 7.3955 0.981286 6.97507C1.29365 6.55464 1.73343 6.244 2.23653 6.08845L20.2895 0.5ZM20.2895 5.6303L5.44737 10.2265V28.3663C5.44701 29.8663 5.7943 31.3463 6.46248 32.6924C7.13066 34.0384 8.10189 35.2146 9.30137 36.1303L9.76889 36.4636L20.2895 43.5686L29.6449 37.25H17.8158C17.1597 37.25 16.5305 36.9919 16.0666 36.5324C15.6027 36.0729 15.3421 35.4498 15.3421 34.8V15.2C15.3421 14.5502 15.6027 13.9271 16.0666 13.4676C16.5305 13.0081 17.1597 12.75 17.8158 12.75H35.1316V10.2265L20.2895 5.6303ZM20.2895 25V32.35H42.5526V25H20.2895ZM20.2895 20.1H42.5526V17.65H20.2895V20.1Z" fill="#1A1B23"/>
</svg>