<svg width="29" height="26" viewBox="0 0 29 26" fill="none" xmlns="http://www.w3.org/2000/svg">
<g id="&#240;&#159;&#166;&#134; icon &#34;shop alt&#34;">
<path id="Vector" d="M25.7607 1H20.4385L21.1051 7.66667C21.1051 7.66667 22.4385 9 24.4385 9C25.8745 9 26.8522 8.3126 27.2895 7.92493C27.4638 7.77043 27.5275 7.53455 27.4893 7.30481L26.5498 1.66848C26.4855 1.28273 26.1518 1 25.7607 1Z" stroke="white" stroke-width="1.86212"/>
<path id="Vector_2" d="M20.4385 1L21.1051 7.66667C21.1051 7.66667 19.7718 9 17.7718 9C15.7718 9 14.4385 7.66667 14.4385 7.66667V1H20.4385Z" stroke="white" stroke-width="1.86212"/>
<path id="Vector_3" d="M14.4385 1V7.66667C14.4385 7.66667 13.1052 9 11.1051 9C9.10514 9 7.7718 7.66667 7.7718 7.66667L8.43847 1H14.4385Z" stroke="white" stroke-width="1.86212"/>
<path id="Vector_4" d="M8.43848 1H3.11617C2.72511 1 2.39136 1.28273 2.32707 1.66848L1.38767 7.30483C1.34939 7.53455 1.41316 7.77043 1.58743 7.92493C2.02465 8.3126 3.00241 9 4.43845 9C6.43845 9 7.77181 7.66667 7.77181 7.66667L8.43848 1Z" stroke="white" stroke-width="1.86212"/>
<path id="Vector_5" d="M2.44743 9V22.3333C2.44743 23.8061 3.64134 25 5.1141 25H23.7808C25.2536 25 26.4474 23.8061 26.4474 22.3333V9" stroke="white" stroke-width="1.86212"/>
<path id="Vector_6" d="M18.2252 25V17C18.2252 15.5272 17.0313 14.3333 15.5585 14.3333H12.8918C11.4191 14.3333 10.2252 15.5272 10.2252 17V25" stroke="white" stroke-width="1.86212" stroke-miterlimit="16"/>
</g>
</svg>
