<svg xmlns="http://www.w3.org/2000/svg" width="23" height="19" viewBox="0 0 23 19" fill="none">
  <path d="M22.1868 0.739362C22.1868 0.739362 20.207 1.909 19.106 2.24052C18.5151 1.56108 17.7298 1.07952 16.8563 0.860946C15.9827 0.642385 15.0632 0.697359 14.222 1.01845C13.3807 1.33954 12.6583 1.91125 12.1526 2.65624C11.6468 3.40125 11.3821 4.2836 11.3942 5.18397V6.16512C9.66993 6.20982 7.96143 5.82741 6.42077 5.05194C4.8801 4.27647 3.55514 3.13202 2.56386 1.72051C2.56386 1.72051 -1.36074 10.5509 7.46961 14.4755C5.44896 15.847 3.04184 16.5348 0.601562 16.4378C9.4319 21.3435 20.2245 16.4378 20.2245 5.15453C20.2237 4.88123 20.1974 4.60861 20.1461 4.34018C21.1474 3.35264 22.1868 0.739362 22.1868 0.739362Z" fill="white"/>
</svg>