<svg xmlns="http://www.w3.org/2000/svg" width="30" height="23" viewBox="0 0 30 23" fill="none">
  <path d="M1.12286 12.5074V10.5566C1.12286 6.56517 1.12286 4.56948 2.37114 3.2854C3.61942 2.00131 5.58466 1.94573 9.51511 1.83456C11.3776 1.78189 13.2801 1.74414 14.9085 1.74414C16.5368 1.74414 18.4394 1.78189 20.3018 1.83456C24.2322 1.94573 26.1975 2.00131 27.4458 3.2854C28.6941 4.56948 28.6941 6.56517 28.6941 10.5566V12.5074C28.6941 16.4987 28.6941 18.4945 27.4458 19.7785C26.1975 21.0626 24.2323 21.1181 20.3019 21.2294C18.4394 21.2821 16.5368 21.3198 14.9085 21.3198C13.2801 21.3198 11.3775 21.2821 9.51498 21.2294C5.58459 21.1181 3.61939 21.0626 2.37112 19.7785C1.12286 18.4945 1.12286 16.4987 1.12286 12.5074Z" fill="white" stroke="black" stroke-width="1.86"/>
  <mask id="path-2-inside-1_306_268" fill="white">
    <path d="M17.6656 11.532L12.8406 14.2891V8.7749L17.6656 11.532Z"/>
  </mask>
  <path d="M17.6656 11.532L12.8406 14.2891V8.7749L17.6656 11.532Z" fill="white"/>
  <path d="M17.6656 11.532L19.6502 15.005C20.8965 14.2928 21.6656 12.9674 21.6656 11.532C21.6656 10.0966 20.8965 8.77122 19.6502 8.05905L17.6656 11.532ZM12.8406 14.2891H8.84064C8.84064 15.715 9.59967 17.0331 10.8329 17.7488C12.0662 18.4645 13.5872 18.4695 14.8252 17.7621L12.8406 14.2891ZM12.8406 8.7749L14.8252 5.30193C13.5872 4.59449 12.0662 4.59957 10.8329 5.31526C9.59967 6.03095 8.84064 7.34902 8.84064 8.7749H12.8406ZM15.681 8.05905L10.8561 10.8162L14.8252 17.7621L19.6502 15.005L15.681 8.05905ZM16.8406 14.2891V8.7749H8.84064V14.2891H16.8406ZM10.8561 12.2479L15.681 15.005L19.6502 8.05905L14.8252 5.30193L10.8561 12.2479Z" fill="black" mask="url(#path-2-inside-1_306_268)"/>
</svg>